<?xml version="1.0" encoding="UTF-8" standalone="no"?><!DOCTYPE svg PUBLIC "-//W3C//DTD SVG 1.1//EN" "http://www.w3.org/Graphics/SVG/1.1/DTD/svg11.dtd"><svg width="100%" height="100%" viewBox="0 0 60 59" version="1.1" xmlns="http://www.w3.org/2000/svg" xmlns:xlink="http://www.w3.org/1999/xlink" xml:space="preserve" xmlns:serif="http://www.serif.com/" style="fill-rule:evenodd;clip-rule:evenodd;stroke-linejoin:round;stroke-miterlimit:1.41421;"><g><path d="M51.504,30.993l-22.99,0l0,-22.991c0,-0.929 -0.744,-1.672 -1.673,-1.672c-14.517,0 -26.335,11.817 -26.335,26.335c0,14.518 11.818,26.335 26.335,26.335c14.518,0 26.335,-11.817 26.335,-26.335c0,-0.917 -0.755,-1.672 -1.672,-1.672Zm-24.663,24.662c-12.672,0 -22.99,-10.318 -22.99,-22.99c0,-12.115 9.414,-22.074 21.318,-22.929l0,22.929c0,0.929 0.743,1.672 1.672,1.672l22.929,0c-0.855,11.904 -10.814,21.318 -22.929,21.318Z" style="fill:#fff;fill-rule:nonzero;"/><path d="M59.494,26.248c-0.025,-6.391 -2.366,-12.548 -6.59,-17.342c-5.005,-5.661 -12.189,-8.906 -19.745,-8.906c-0.929,0 -1.673,0.743 -1.673,1.672l0,24.663c0,0.929 0.744,1.672 1.673,1.672l24.663,0c0.929,0 1.672,-0.743 1.672,-1.672c0,-0.025 0,-0.049 0,-0.087Zm-24.663,-1.573l0,-21.256c5.971,0.433 11.57,3.196 15.558,7.717c3.345,3.778 5.327,8.535 5.698,13.539l-21.256,0Z" style="fill:#fff;fill-rule:nonzero;"/></g></svg>