<?xml version="1.0" encoding="UTF-8" standalone="no"?><!DOCTYPE svg PUBLIC "-//W3C//DTD SVG 1.1//EN" "http://www.w3.org/Graphics/SVG/1.1/DTD/svg11.dtd"><svg width="100%" height="100%" viewBox="0 0 38 60" version="1.1" xmlns="http://www.w3.org/2000/svg" xmlns:xlink="http://www.w3.org/1999/xlink" xml:space="preserve" xmlns:serif="http://www.serif.com/" style="fill-rule:evenodd;clip-rule:evenodd;stroke-linejoin:round;stroke-miterlimit:1.41421;"><g><path d="M20.172,27.745l0,-0.768c2.388,-0.633 4.154,-2.815 4.154,-5.404c0,-2.589 -1.766,-4.772 -4.154,-5.404l0,-5.138c1.063,0.449 2.007,1.243 2.376,1.62c0.567,0.583 1.499,0.598 2.084,0.032c0.585,-0.566 0.601,-1.5 0.034,-2.085c-0.237,-0.245 -2.083,-2.088 -4.494,-2.669l0,-0.759c0,-0.814 -0.661,-1.475 -1.476,-1.475c-0.814,0 -1.475,0.661 -1.475,1.475l0,0.797c-2.337,0.667 -4.054,2.824 -4.054,5.377c0,2.552 1.718,4.709 4.054,5.375l0,5.007c-1.017,-0.573 -1.957,-1.496 -2.311,-1.909c-0.529,-0.62 -1.459,-0.695 -2.08,-0.167c-0.62,0.528 -0.695,1.459 -0.167,2.079c0.248,0.292 2.159,2.463 4.558,3.193l0,0.823c0,0.815 0.661,1.475 1.475,1.475c0.815,0 1.476,-0.66 1.476,-1.475Zm1.204,-6.172c0,0.928 -0.481,1.744 -1.204,2.215l0,-4.43c0.723,0.471 1.204,1.287 1.204,2.215Zm-5.258,-8.229c0,-0.885 0.437,-1.667 1.103,-2.147l0,4.293c-0.666,-0.479 -1.103,-1.262 -1.103,-2.146Z" style="fill:#fff;fill-rule:nonzero;"/><path d="M17.221,50.036l0,8.048c0,0.814 0.661,1.475 1.475,1.475c0.815,0 1.476,-0.661 1.476,-1.475l0,-1.7l9.681,0c4.312,0 7.821,-3.509 7.822,-7.823l0,-6.348c0,-0.815 -0.661,-1.475 -1.475,-1.475l-6.348,0c-4.313,0 -7.822,3.509 -7.822,7.823l0,4.873l-1.858,0l0,-19.338c8.556,-0.751 15.291,-7.967 15.291,-16.734c0,-9.266 -7.521,-16.803 -16.767,-16.803c-9.245,0 -16.767,7.537 -16.767,16.803c0,8.767 6.735,15.983 15.292,16.734l0,12.99l-1.474,0l0,-4.873c0.001,-4.314 -3.508,-7.824 -7.822,-7.824l-6.347,0c-0.391,0 -0.766,0.155 -1.043,0.432c-0.277,0.277 -0.432,0.652 -0.432,1.043l0,6.348c0,4.315 3.509,7.824 7.822,7.824l9.296,0Zm-9.296,-2.95c-2.686,0 -4.872,-2.187 -4.872,-4.874l0,-4.873l4.872,0c2.687,0 4.872,2.187 4.872,4.874l0,4.873l-4.872,0Zm-3.046,-29.724c0,-7.639 6.199,-13.853 13.817,-13.853c7.619,0 13.817,6.214 13.817,13.853c0,7.638 -6.198,13.853 -13.817,13.853c-7.618,0 -13.817,-6.215 -13.817,-13.853Zm29.845,31.199c0,2.687 -2.185,4.873 -4.871,4.873l-0.001,0l-4.872,0l0,-4.873c0,-2.687 2.185,-4.873 4.872,-4.873l4.872,0l0,4.873Z" style="fill:#fff;fill-rule:nonzero;"/></g></svg>