<?xml version="1.0" encoding="UTF-8" standalone="no"?><!DOCTYPE svg PUBLIC "-//W3C//DTD SVG 1.1//EN" "http://www.w3.org/Graphics/SVG/1.1/DTD/svg11.dtd"><svg width="100%" height="100%" viewBox="0 0 44 60" version="1.1" xmlns="http://www.w3.org/2000/svg" xmlns:xlink="http://www.w3.org/1999/xlink" xml:space="preserve" xmlns:serif="http://www.serif.com/" style="fill-rule:evenodd;clip-rule:evenodd;stroke-linejoin:round;stroke-miterlimit:1.41421;"><g><g><path d="M23.361,28.84l0,-0.819c0,-0.823 -0.667,-1.491 -1.49,-1.491c-0.823,0 -1.49,0.668 -1.49,1.491l0,0.858c-2.425,0.677 -4.209,2.908 -4.209,5.551c0,2.642 1.784,4.872 4.209,5.549l0,5.298c-1.087,-0.594 -2.097,-1.586 -2.473,-2.025c-0.533,-0.626 -1.474,-0.702 -2.101,-0.168c-0.626,0.533 -0.702,1.474 -0.169,2.1c0.258,0.303 2.25,2.567 4.743,3.312l0,0.884c0,0.823 0.667,1.49 1.49,1.49c0.823,0 1.49,-0.667 1.49,-1.49l0,-0.828c2.479,-0.642 4.315,-2.9 4.315,-5.58c0,-2.679 -1.836,-4.937 -4.315,-5.579l0,-5.425c1.136,0.465 2.148,1.314 2.54,1.715c0.573,0.588 1.514,0.603 2.104,0.031c0.592,-0.572 0.608,-1.515 0.035,-2.107c-0.246,-0.254 -2.171,-2.175 -4.679,-2.767Zm-4.209,5.59c0,-0.962 0.488,-1.81 1.229,-2.31l0,4.619c-0.741,-0.5 -1.229,-1.348 -1.229,-2.309Zm5.543,8.542c0,1.005 -0.535,1.884 -1.334,2.373l0,-4.745c0.799,0.489 1.334,1.368 1.334,2.372Z" style="fill:#f60;fill-rule:nonzero;"/><path d="M21.871,22.281c-8.998,0 -16.319,7.321 -16.319,16.319c0,8.999 7.321,16.319 16.319,16.319c8.998,0 16.319,-7.32 16.319,-16.319c0,-8.998 -7.321,-16.319 -16.319,-16.319Zm0,29.658c-7.355,0 -13.338,-5.984 -13.338,-13.339c0,-7.354 5.983,-13.338 13.338,-13.338c7.355,0 13.338,5.984 13.338,13.338c0,7.355 -5.983,13.339 -13.338,13.339Z" style="fill:#f60;fill-rule:nonzero;"/><path d="M8.69,10.433c0.823,0 1.49,-0.667 1.49,-1.49l0,-3.295c0,-0.823 -0.667,-1.49 -1.49,-1.49c-0.823,0 -1.49,0.667 -1.49,1.49l0,3.295c0,0.823 0.667,1.49 1.49,1.49Z" style="fill:#f60;fill-rule:nonzero;"/><path d="M41.643,23.929c-0.824,0 -1.491,0.667 -1.491,1.49l0,2.337c-1.712,-2.876 -4.084,-5.317 -6.905,-7.11l0,-6.411c0,-0.823 -0.667,-1.49 -1.49,-1.49c-0.823,0 -1.49,0.667 -1.49,1.49l0,4.833c-2.577,-1.112 -5.416,-1.729 -8.396,-1.729c-1.758,0 -3.465,0.215 -5.1,0.619l0,-5.308c0,-0.823 -0.667,-1.49 -1.491,-1.49c-0.823,0 -1.49,0.667 -1.49,1.49l0,6.285c-1.269,0.524 -2.477,1.167 -3.61,1.915l0,-5.105c0,-0.823 -0.667,-1.49 -1.49,-1.49c-0.823,0 -1.49,0.667 -1.49,1.49l0,7.48c-1.399,1.336 -2.615,2.86 -3.61,4.531l0,-12.222c0,-0.824 -0.667,-1.491 -1.49,-1.491c-0.824,0 -1.491,0.667 -1.491,1.491l0,23.066c0,11.724 9.538,21.262 21.262,21.262c11.724,0 21.262,-9.538 21.262,-21.262l0,-13.181c0,-0.823 -0.667,-1.49 -1.49,-1.49Zm-19.772,32.953c-10.08,0 -18.281,-8.201 -18.281,-18.282c0,-10.08 8.201,-18.281 18.281,-18.281c10.08,0 18.281,8.201 18.281,18.281c0,10.081 -8.201,18.282 -18.281,18.282Z" style="fill:#f60;fill-rule:nonzero;"/><path d="M41.643,14.043c-0.824,0 -1.491,0.667 -1.491,1.491l0,3.295c0,0.823 0.667,1.49 1.491,1.49c0.823,0 1.49,-0.667 1.49,-1.49l0,-3.295c0,-0.824 -0.667,-1.491 -1.49,-1.491Z" style="fill:#f60;fill-rule:nonzero;"/><path d="M31.757,10.084c0.823,0 1.49,-0.667 1.49,-1.49l0,-3.296c0,-0.823 -0.667,-1.49 -1.49,-1.49c-0.823,0 -1.49,0.667 -1.49,1.49l0,3.296c0,0.823 0.667,1.49 1.49,1.49Z" style="fill:#f60;fill-rule:nonzero;"/><path d="M21.871,13.729c0.823,0 1.49,-0.667 1.49,-1.491l0,-6.59c0,-0.823 -0.667,-1.49 -1.49,-1.49c-0.823,0 -1.49,0.667 -1.49,1.49l0,6.59c0,0.824 0.667,1.491 1.49,1.491Z" style="fill:#f60;fill-rule:nonzero;"/><path d="M15.28,7.138c0.824,0 1.491,-0.667 1.491,-1.49l0,-3.295c0,-0.824 -0.667,-1.491 -1.491,-1.491c-0.823,0 -1.49,0.667 -1.49,1.491l0,3.295c0,0.823 0.667,1.49 1.49,1.49Z" style="fill:#f60;fill-rule:nonzero;"/></g></g></svg>